<?xml version="1.0" encoding="UTF-8"?><svg id="Layer_1" xmlns="http://www.w3.org/2000/svg" viewBox="0 0 700 700"><defs><style>.cls-1{fill:#ff8a69;}.cls-2{fill:#faa944;}.cls-3{fill:#4d75fe;}.cls-4{fill:#022791;}</style></defs><path class="cls-4" d="M117.27,579.17c-2.08,4.92-4.92,9.13-8.54,12.63-3.62,3.5-7.85,6.23-12.69,8.18-4.84,1.95-10.07,2.93-15.69,2.93s-10.88-.98-15.81-2.93c-4.92-1.95-9.19-4.68-12.81-8.18s-6.47-7.71-8.54-12.63c-2.08-4.92-3.11-10.35-3.11-16.3v-2.93c0-5.94,1.04-11.37,3.11-16.3,2.08-4.92,4.94-9.13,8.6-12.63,3.66-3.5,7.94-6.23,12.81-8.18,4.88-1.95,10.13-2.93,15.74-2.93s10.74.98,15.62,2.93c4.88,1.95,9.13,4.68,12.75,8.18s6.47,7.71,8.54,12.63c2.08,4.92,3.11,10.35,3.11,16.3v2.93c0,5.94-1.04,11.37-3.11,16.3h.02ZM103.47,550.49c-1.02-3.38-2.56-6.32-4.64-8.85-2.08-2.52-4.68-4.52-7.81-5.98-3.13-1.47-6.77-2.2-10.92-2.2s-7.75.73-10.8,2.2-5.62,3.46-7.69,5.98c-2.08,2.52-3.62,5.47-4.64,8.85-1.02,3.38-1.52,7.02-1.52,10.92s.55,7.55,1.64,10.92c1.1,3.38,2.7,6.32,4.82,8.85,2.12,2.52,4.7,4.52,7.75,5.98,3.05,1.47,6.57,2.2,10.56,2.2s7.5-.73,10.56-2.2c3.05-1.47,5.63-3.46,7.75-5.98s3.72-5.47,4.82-8.85c1.1-3.38,1.64-7.02,1.64-10.92s-.51-7.54-1.52-10.92h-.02Z"/><path class="cls-4" d="M238.58,540.42c3.54,1.46,6.61,3.54,9.21,6.23,2.6,2.69,4.64,5.92,6.11,9.7,1.47,3.79,2.2,7.99,2.2,12.63,0,.73-.02,1.47-.06,2.2-.04.73-.06,1.38-.06,1.95,0,.73-.04,1.42-.12,2.08h-44.18c.65,4.64,2.28,8.42,4.88,11.35,2.6,2.93,6.27,4.4,10.98,4.4,3.42,0,6.2-.59,8.36-1.77s3.84-3.11,5.06-5.79h14.4c-1.63,6.51-4.97,11.41-10.01,14.71-5.05,3.3-11.14,4.94-18.31,4.94-4.23,0-8.2-.77-11.9-2.32-3.7-1.55-6.93-3.68-9.7-6.41-2.77-2.73-4.94-6.02-6.53-9.88-1.59-3.87-2.38-8.12-2.38-12.75v-1.95c0-4.64.79-8.89,2.38-12.75,1.59-3.87,3.76-7.18,6.53-9.95,2.77-2.77,5.98-4.93,9.64-6.47,3.66-1.55,7.61-2.32,11.83-2.32s8.12.73,11.66,2.2v-.02ZM237.3,554.15c-2.2-2.56-5.49-3.84-9.88-3.84s-8.03,1.22-10.43,3.66c-2.4,2.44-4.04,5.66-4.94,9.64h28.92c-.24-3.74-1.47-6.89-3.66-9.46h0Z"/><path class="cls-3" d="M386.31,521.75v13.3h-22.46v66.02h-15.37v-66.02h-23.43v-13.3h61.27,0Z"/><path class="cls-3" d="M421.17,540.42c3.54,1.46,6.61,3.54,9.21,6.23,2.6,2.69,4.64,5.92,6.11,9.7,1.46,3.79,2.2,7.99,2.2,12.63,0,.73-.02,1.47-.06,2.2-.04.73-.06,1.38-.06,1.95,0,.73-.04,1.42-.12,2.08h-44.18c.65,4.64,2.28,8.42,4.88,11.35,2.6,2.93,6.27,4.4,10.98,4.4,3.42,0,6.2-.59,8.36-1.77s3.84-3.11,5.06-5.79h14.4c-1.63,6.51-4.97,11.41-10.01,14.71-5.05,3.3-11.14,4.94-18.31,4.94-4.23,0-8.2-.77-11.9-2.32-3.71-1.55-6.94-3.68-9.7-6.41-2.77-2.73-4.94-6.02-6.53-9.88-1.59-3.87-2.38-8.12-2.38-12.75v-1.95c0-4.64.79-8.89,2.38-12.75,1.59-3.87,3.76-7.18,6.53-9.95,2.77-2.77,5.98-4.93,9.64-6.47,3.66-1.55,7.61-2.32,11.83-2.32s8.12.73,11.66,2.2v-.02ZM419.88,554.15c-2.2-2.56-5.5-3.84-9.88-3.84s-8.03,1.22-10.43,3.66c-2.4,2.44-4.04,5.66-4.94,9.64h28.92c-.24-3.74-1.47-6.89-3.66-9.46h0Z"/><path class="cls-3" d="M613.56,548.23c1.38-2.36,3.19-4.27,5.43-5.74,2.24-1.47,4.74-2.54,7.5-3.23,2.77-.69,5.54-1.04,8.3-1.04,3.18,0,6.14.35,8.91,1.04,2.77.69,5.18,1.73,7.26,3.11,2.08,1.38,3.76,3.18,5.06,5.37,1.3,2.2,2.03,4.84,2.2,7.94v1.22h-13.42c-.16-2.85-1.12-4.84-2.86-5.98-1.75-1.14-4.13-1.71-7.14-1.71-5.86,0-8.79,2.12-8.79,6.35,0,1.55.51,2.86,1.52,3.96s2.42,1.85,4.21,2.25,3.72.79,5.8,1.16c2.08.37,4.17.83,6.28,1.4,2.12.57,4.15,1.3,6.11,2.2,1.95.89,3.66,2.08,5.13,3.54,1.46,1.47,2.65,3.3,3.54,5.5s1.34,4.48,1.34,6.84v.61c0,3.66-.75,6.76-2.25,9.28-1.5,2.52-3.42,4.57-5.74,6.16s-4.92,2.73-7.81,3.42c-2.89.69-5.75,1.04-8.6,1.04-3.42,0-6.59-.39-9.52-1.16-2.93-.77-5.5-2-7.69-3.66-2.2-1.67-3.95-3.76-5.25-6.28s-2.03-5.54-2.2-9.03v-1.22h13.91c0,3.58.89,6.16,2.69,7.75,1.79,1.59,4.56,2.38,8.3,2.38,3.18,0,5.59-.69,7.26-2.08,1.67-1.38,2.5-3.13,2.5-5.25,0-1.63-.51-3.09-1.52-4.4-1.02-1.3-2.82-2.32-5.43-3.05-1.46-.41-3.17-.77-5.13-1.1-1.95-.32-3.96-.73-6.04-1.22-2.08-.49-4.11-1.18-6.11-2.08-1.99-.89-3.72-2.08-5.18-3.54-1.3-1.3-2.4-2.97-3.3-5.01-.89-2.03-1.34-4.19-1.34-6.47v-.73c0-3.34.69-6.19,2.08-8.54h-.02Z"/><path class="cls-4" d="M188.85,556.04c-1.63-3.83-3.79-7.06-6.47-9.7-2.69-2.65-5.75-4.68-9.21-6.1-3.46-1.42-6.98-2.13-10.56-2.13-3.99,0-7.73.61-11.22,1.83-3.15,1.1-5.95,3.14-8.43,6.01v-5.89h-14.51v82.99h14.77v-26.97h.24c1.79,1.95,4.07,3.58,6.84,4.88,2.77,1.3,6.55,1.95,11.35,1.95,4.39,0,8.4-.79,12.02-2.38s6.76-3.79,9.4-6.59c2.65-2.81,4.68-6.15,6.11-10.01,1.42-3.87,2.13-8.07,2.13-12.63v-2.32c0-4.8-.81-9.11-2.44-12.93h-.02ZM175.43,578.56c-.65,2.48-1.67,4.64-3.05,6.47-1.38,1.83-3.13,3.27-5.25,4.33-2.12,1.06-4.6,1.59-7.45,1.59s-5.31-.53-7.38-1.59c-2.08-1.06-3.8-2.5-5.18-4.33-1.38-1.83-2.42-3.99-3.11-6.47-.69-2.48-1.04-5.14-1.04-7.99s.34-5.49,1.04-7.94c.69-2.44,1.73-4.57,3.11-6.41,1.38-1.83,3.11-3.27,5.18-4.33,2.08-1.06,4.53-1.59,7.38-1.59s5.33.53,7.45,1.59c2.12,1.06,3.87,2.5,5.25,4.33,1.38,1.83,2.4,3.96,3.05,6.41.65,2.44.98,5.09.98,7.94s-.33,5.51-.98,7.99Z"/><path class="cls-4" d="M317.06,551.22c-1.1-2.65-2.62-4.92-4.57-6.84-1.95-1.91-4.29-3.42-7.02-4.52-2.73-1.1-5.75-1.64-9.09-1.64-3.66,0-7.04.71-10.13,2.13-2.84,1.31-5.36,3.47-7.58,6.39v-6.69h-14.51v61.02h14.77v-36.61c0-4.64,1.16-8.07,3.47-10.31,2.32-2.24,5.47-3.35,9.46-3.35,3.66,0,6.61,1.08,8.85,3.23,2.24,2.16,3.35,5.59,3.35,10.31v36.73h14.64v-41.13c0-3.18-.55-6.08-1.64-8.73h0Z"/><path class="cls-3" d="M601.6,545.85c-3.79-3.87-8.93-5.8-15.44-5.8-1.55,0-3.22.18-5.01.55s-3.54.95-5.25,1.77c-1.71.81-3.34,1.85-4.88,3.11-1.55,1.26-2.89,2.78-4.03,4.57h-.24c-1.79-3.01-4.19-5.43-7.2-7.26-3.01-1.83-6.6-2.74-10.74-2.74-3.09,0-6.07.69-8.91,2.08-2.59,1.26-4.86,3.37-6.84,6.24v-6.48h-14.51v61.02h14.76v-37.1c0-4.48.99-7.79,2.99-9.95,1.99-2.16,4.78-3.23,8.36-3.23,3.17,0,5.79.94,7.87,2.81,2.08,1.87,3.11,5.01,3.11,9.4v38.08h14.64v-37.59c0-4.64,1.06-7.91,3.18-9.83,2.12-1.91,4.88-2.86,8.3-2.86s5.98.94,7.94,2.81c1.96,1.87,2.93,5.13,2.93,9.76v37.71h14.64v-41.74c0-6.35-1.89-11.45-5.67-15.32h-.02Z"/><path class="cls-3" d="M491.13,540.06v.86h-.06v9.27c-4.31-6.75-10.56-10.13-18.74-10.13s-14.94,2.86-20.25,8.57c-5.32,5.71-7.98,13.05-7.98,22.03s2.67,16.36,8.02,22.14c5.35,5.78,12.04,8.67,20.09,8.67s14.33-3.63,18.85-10.88v10.02h14.58v-60.55h-14.51ZM486.33,583.64c-3.16,3.12-6.84,4.69-11.04,4.69s-7.89-1.58-11.04-4.74c-3.16-3.16-4.74-7.47-4.74-12.93s1.56-9.73,4.69-12.82,6.8-4.63,11.04-4.63,7.94,1.56,11.1,4.69c3.16,3.12,4.74,7.41,4.74,12.88s-1.58,9.75-4.74,12.88h0Z"/><path class="cls-4" d="M394.6,242.14c30.89,24.03,66.98,16.69,94.74-8.46,5.04-4.57,11.34-8.28,6.24-14.29-2.45-2.9-18.63-19.26-20.8-19.22-2.42.04-15.02,10.76-18.89,13.04-13.99,8.26-29.74,9.08-42.73-1.89-18.94-15.99-12.86-35.76-2.47-54.47,3.49-6.28,10.52-10.71,5-17.34-2.45-2.94-15.52-16.37-18.02-17.72-5.69-3.06-16.75,14.65-19.45,18.96-22.72,36.29-18.29,74.45,16.35,101.4Z"/><path class="cls-4" d="M416.6,198.33c22.27,29.22,57.71-9.41,31.26-30.02-20.24-15.77-46.95,9.42-31.26,30.02Z"/><path class="cls-1" d="M305.28,296.66c-30.89-24.03-66.98-16.69-94.74,8.46-5.04,4.57-11.34,8.28-6.24,14.29,2.45,2.9,18.63,19.26,20.8,19.22,2.42-.04,15.02-10.76,18.89-13.04,13.99-8.26,29.74-9.08,42.73,1.89,18.94,15.99,12.86,35.76,2.47,54.47-3.49,6.28-10.52,10.71-5,17.34,2.45,2.94,15.52,16.37,18.02,17.72,5.69,3.06,16.75-14.65,19.45-18.96,22.72-36.29,18.29-74.45-16.35-101.4Z"/><path class="cls-1" d="M283.28,340.47c-22.27-29.22-57.71,9.41-31.26,30.02,20.24,15.77,46.95-9.42,31.26-30.02Z"/><path class="cls-3" d="M376.99,313.95c-24.03,30.89-16.69,66.98,8.46,94.74,4.57,5.04,8.28,11.34,14.29,6.24,2.9-2.45,19.26-18.63,19.22-20.8-.04-2.42-10.76-15.02-13.04-18.89-8.26-13.99-9.08-29.74,1.89-42.73,15.99-18.94,35.76-12.86,54.47-2.47,6.28,3.49,10.71,10.52,17.34,5,2.94-2.45,16.37-15.52,17.72-18.02,3.06-5.69-14.65-16.75-18.96-19.45-36.29-22.72-74.45-18.29-101.4,16.35Z"/><path class="cls-3" d="M420.8,335.95c-29.22,22.27,9.41,57.71,30.02,31.26,15.77-20.24-9.42-46.95-30.02-31.26Z"/><path class="cls-2" d="M323.01,225.17c24.03-30.89,16.69-66.98-8.46-94.74-4.57-5.04-8.28-11.34-14.29-6.24-2.9,2.45-19.26,18.63-19.22,20.8.04,2.42,10.76,15.02,13.04,18.89,8.26,13.99,9.08,29.74-1.89,42.73-15.99,18.94-35.76,12.86-54.47,2.47-6.28-3.49-10.71-10.52-17.34-5-2.94,2.45-16.37,15.52-17.72,18.02-3.06,5.69,14.65,16.75,18.96,19.45,36.29,22.72,74.45,18.29,101.4-16.35Z"/><path class="cls-2" d="M279.2,203.18c29.22-22.27-9.41-57.71-30.02-31.26-15.77,20.24,9.42,46.95,30.02,31.26Z"/></svg>