<?xml version="1.0" encoding="UTF-8"?><svg id="Layer_1" xmlns="http://www.w3.org/2000/svg" viewBox="0 0 700 700"><defs><style>.cls-1{fill:#fff;}</style></defs><path class="cls-1" d="M447.06,290.68c67.22,52.29,145.76,36.32,206.17-18.41,10.97-9.95,24.68-18.02,13.58-31.1-5.33-6.31-40.54-41.91-45.27-41.83-5.27.09-32.69,23.42-41.11,28.38-30.45,17.98-64.72,19.76-92.99-4.11-41.22-34.8-27.99-77.82-5.38-118.54,7.59-13.67,22.89-23.31,10.88-37.74-5.33-6.4-33.77-35.62-39.22-38.56-12.38-6.66-36.45,31.88-42.33,41.26-49.44,78.97-39.8,162.02,35.58,220.67l.07-.02Z"/><path class="cls-1" d="M494.94,195.34c48.46,63.59,125.59-20.48,68.03-65.33-44.05-34.32-102.17,20.5-68.03,65.33Z"/><path class="cls-1" d="M252.68,409.32c-67.22-52.29-145.76-36.32-206.17,18.41-10.97,9.95-24.68,18.02-13.58,31.1,5.33,6.31,40.54,41.91,45.27,41.83,5.27-.09,32.69-23.42,41.11-28.38,30.45-17.98,64.72-19.76,92.99,4.11,41.22,34.8,27.99,77.82,5.38,118.54-7.59,13.67-22.89,23.31-10.88,37.74,5.33,6.4,33.77,35.62,39.22,38.56,12.38,6.66,36.45-31.88,42.33-41.26,49.44-78.97,39.8-162.02-35.58-220.67l-.07.02Z"/><path class="cls-1" d="M204.8,504.66c-48.46-63.59-125.59,20.48-68.03,65.33,44.05,34.32,102.17-20.5,68.03-65.33Z"/><path class="cls-1" d="M408.74,446.95c-52.29,67.22-36.32,145.76,18.41,206.17,9.95,10.97,18.02,24.68,31.1,13.58,6.31-5.33,41.91-40.54,41.83-45.27-.09-5.27-23.42-32.69-28.38-41.11-17.98-30.45-19.76-64.72,4.11-92.99,34.8-41.22,77.82-27.99,118.54-5.38,13.67,7.59,23.31,22.89,37.74,10.88,6.4-5.33,35.62-33.77,38.56-39.22,6.66-12.38-31.88-36.45-41.26-42.33-78.97-49.44-162.02-39.8-220.67,35.58l.02.07Z"/><path class="cls-1" d="M504.08,494.83c-63.59,48.46,20.48,125.59,65.33,68.03,34.32-44.05-20.5-102.17-65.33-68.03Z"/><path class="cls-1" d="M291.26,253.75c52.29-67.22,36.32-145.76-18.41-206.17-9.95-10.97-18.02-24.68-31.1-13.58-6.31,5.33-41.91,40.54-41.83,45.27.09,5.27,23.42,32.69,28.38,41.11,17.98,30.45,19.76,64.72-4.11,92.99-34.8,41.22-77.82,27.99-118.54,5.38-13.67-7.6-23.31-22.89-37.74-10.88-6.4,5.33-35.62,33.77-38.56,39.22-6.66,12.38,31.88,36.45,41.26,42.33,78.97,49.44,162.02,39.8,220.67-35.58l-.02-.07Z"/><path class="cls-1" d="M195.92,205.89c63.59-48.46-20.48-125.59-65.33-68.03-34.32,44.05,20.5,102.17,65.33,68.03Z"/></svg>