<?xml version="1.0" encoding="UTF-8"?><svg id="Layer_1" xmlns="http://www.w3.org/2000/svg" viewBox="0 0 334.1 82.26"><path d="M119.66,43.98c-.77,1.83-1.83,3.39-3.18,4.69-1.34,1.3-2.92,2.31-4.72,3.04s-3.74,1.09-5.83,1.09-4.04-.36-5.87-1.09c-1.83-.72-3.42-1.74-4.76-3.04s-2.4-2.87-3.18-4.69c-.77-1.83-1.16-3.85-1.16-6.06v-1.09c0-2.21.38-4.23,1.16-6.06.77-1.83,1.84-3.39,3.2-4.69,1.36-1.3,2.95-2.31,4.76-3.04,1.81-.72,3.76-1.09,5.85-1.09s3.99.36,5.81,1.09,3.39,1.74,4.74,3.04,2.4,2.87,3.18,4.69c.77,1.83,1.16,3.85,1.16,6.06v1.09c0,2.21-.38,4.23-1.16,6.06h0ZM114.53,33.33c-.38-1.26-.95-2.35-1.72-3.29-.77-.94-1.74-1.68-2.9-2.22-1.16-.55-2.52-.82-4.06-.82s-2.88.27-4.01.82-2.09,1.29-2.86,2.22c-.77.94-1.34,2.03-1.72,3.29s-.57,2.61-.57,4.06.21,2.81.61,4.06c.41,1.26,1.01,2.35,1.79,3.29.79.94,1.75,1.68,2.88,2.22,1.13.55,2.44.82,3.92.82s2.79-.27,3.92-.82c1.13-.55,2.09-1.29,2.88-2.22s1.38-2.03,1.79-3.29.61-2.61.61-4.06-.19-2.8-.57-4.06h0Z"/><path d="M164.75,29.58c1.32.54,2.46,1.32,3.42,2.31.97,1,1.72,2.2,2.27,3.61.55,1.41.82,2.97.82,4.69,0,.27,0,.55-.02.82-.01.27-.02.51-.02.72,0,.27-.01.53-.04.77h-16.42c.24,1.72.85,3.13,1.81,4.22.97,1.09,2.33,1.63,4.08,1.63,1.27,0,2.31-.22,3.11-.66s1.43-1.16,1.88-2.15h5.35c-.61,2.42-1.85,4.24-3.72,5.47-1.88,1.23-4.14,1.84-6.81,1.84-1.57,0-3.05-.29-4.42-.86s-2.58-1.37-3.61-2.38c-1.03-1.01-1.84-2.24-2.43-3.67s-.89-3.02-.89-4.74v-.72c0-1.72.3-3.3.89-4.74.59-1.44,1.4-2.67,2.43-3.7,1.03-1.03,2.22-1.83,3.58-2.4,1.36-.58,2.83-.86,4.4-.86s3.02.27,4.33.82h0ZM164.27,34.69c-.82-.95-2.04-1.43-3.67-1.43s-2.99.45-3.88,1.36-1.5,2.1-1.84,3.58h10.75c-.09-1.39-.55-2.56-1.36-3.52h0Z"/><path d="M219.66,22.64v4.94h-8.35v24.54h-5.71v-24.54h-8.71v-4.94h22.77,0Z"/><path d="M232.62,29.58c1.32.54,2.46,1.32,3.42,2.31.97,1,1.72,2.2,2.27,3.61.54,1.41.82,2.97.82,4.69,0,.27,0,.55-.02.82-.01.27-.02.51-.02.72,0,.27-.01.53-.04.77h-16.42c.24,1.72.85,3.13,1.81,4.22.97,1.09,2.33,1.63,4.08,1.63,1.27,0,2.31-.22,3.11-.66s1.43-1.16,1.88-2.15h5.35c-.61,2.42-1.85,4.24-3.72,5.47-1.88,1.23-4.14,1.84-6.81,1.84-1.57,0-3.05-.29-4.42-.86-1.38-.58-2.58-1.37-3.61-2.38-1.03-1.01-1.84-2.24-2.43-3.67-.59-1.44-.89-3.02-.89-4.74v-.72c0-1.72.3-3.3.89-4.74.59-1.44,1.4-2.67,2.43-3.7,1.03-1.03,2.22-1.83,3.58-2.4,1.36-.58,2.83-.86,4.4-.86s3.02.27,4.33.82h0ZM232.14,34.69c-.82-.95-2.04-1.43-3.67-1.43s-2.99.45-3.88,1.36-1.5,2.1-1.84,3.58h10.75c-.09-1.39-.55-2.56-1.36-3.52h0Z"/><path d="M304.13,32.49c.51-.88,1.19-1.59,2.02-2.13.83-.55,1.76-.95,2.79-1.2,1.03-.26,2.06-.38,3.08-.38,1.18,0,2.28.13,3.31.38,1.03.26,1.93.64,2.7,1.16.77.51,1.4,1.18,1.88,2,.48.82.75,1.8.82,2.95v.45h-4.99c-.06-1.06-.42-1.8-1.06-2.22-.65-.42-1.54-.64-2.65-.64-2.18,0-3.27.79-3.27,2.36,0,.58.19,1.06.57,1.47s.9.69,1.57.84,1.38.3,2.16.43c.77.14,1.55.31,2.34.52.79.21,1.54.48,2.27.82.72.33,1.36.77,1.91,1.32.54.55.98,1.23,1.32,2.04s.5,1.66.5,2.54v.23c0,1.36-.28,2.51-.84,3.45-.56.94-1.27,1.7-2.13,2.29s-1.83,1.01-2.9,1.27-2.14.38-3.2.38c-1.27,0-2.45-.14-3.54-.43-1.09-.29-2.04-.74-2.86-1.36-.82-.62-1.47-1.4-1.95-2.34s-.75-2.06-.82-3.36v-.45h5.17c0,1.33.33,2.29,1,2.88.67.59,1.69.89,3.08.89,1.18,0,2.08-.26,2.7-.77.62-.51.93-1.16.93-1.95,0-.61-.19-1.15-.57-1.63-.38-.48-1.05-.86-2.02-1.13-.54-.15-1.18-.29-1.91-.41-.72-.12-1.47-.27-2.25-.45-.77-.18-1.53-.44-2.27-.77-.74-.33-1.38-.77-1.93-1.32-.48-.48-.89-1.1-1.23-1.86-.33-.75-.5-1.56-.5-2.4v-.27c0-1.24.26-2.3.77-3.18h0Z"/><path d="M146.27,35.39c-.61-1.42-1.41-2.62-2.4-3.61-1-.98-2.14-1.74-3.42-2.27-1.29-.53-2.59-.79-3.92-.79-1.48,0-2.87.23-4.17.68-1.17.41-2.21,1.17-3.13,2.23v-2.19h-5.39v30.85h5.49v-10.02h.09c.67.72,1.51,1.33,2.54,1.81,1.03.48,2.43.72,4.22.72,1.63,0,3.12-.3,4.47-.89s2.51-1.41,3.49-2.45c.98-1.04,1.74-2.28,2.27-3.72.53-1.44.79-3,.79-4.69v-.86c0-1.78-.3-3.39-.91-4.81h0ZM141.28,43.76c-.24.92-.62,1.72-1.13,2.4s-1.16,1.22-1.95,1.61-1.71.59-2.77.59-1.97-.2-2.74-.59c-.77-.39-1.41-.93-1.93-1.61s-.9-1.48-1.16-2.4c-.26-.92-.38-1.91-.38-2.97s.13-2.04.38-2.95c.26-.91.64-1.7,1.16-2.38.51-.68,1.16-1.22,1.93-1.61.77-.39,1.68-.59,2.74-.59s1.98.2,2.77.59c.79.39,1.44.93,1.95,1.61s.89,1.47,1.13,2.38c.24.91.36,1.89.36,2.95s-.12,2.05-.36,2.97Z"/><path d="M193.92,33.6c-.41-.98-.98-1.83-1.7-2.54-.72-.71-1.6-1.27-2.61-1.68s-2.14-.61-3.38-.61c-1.36,0-2.62.27-3.77.79-1.06.49-1.99,1.29-2.82,2.37v-2.49h-5.39v22.68h5.49v-13.61c0-1.72.43-3,1.29-3.83s2.03-1.25,3.52-1.25c1.36,0,2.46.4,3.29,1.2.83.8,1.25,2.08,1.25,3.83v13.65h5.44v-15.29c0-1.18-.2-2.26-.61-3.24h0Z"/><path d="M299.68,31.6c-1.41-1.44-3.32-2.16-5.74-2.16-.58,0-1.2.07-1.86.21s-1.32.35-1.95.66c-.64.3-1.24.69-1.81,1.16-.58.47-1.07,1.03-1.5,1.7h-.09c-.67-1.12-1.56-2.02-2.68-2.7s-2.45-1.02-3.99-1.02c-1.15,0-2.25.26-3.31.77-.96.47-1.81,1.25-2.54,2.32v-2.41h-5.39v22.68h5.49v-13.79c0-1.66.37-2.9,1.11-3.7.74-.8,1.78-1.2,3.11-1.2,1.18,0,2.15.35,2.93,1.04s1.16,1.86,1.16,3.49v14.15h5.44v-13.97c0-1.72.39-2.94,1.18-3.65.79-.71,1.81-1.06,3.08-1.06s2.22.35,2.95,1.04c.73.69,1.09,1.91,1.09,3.63v14.02h5.44v-15.51c0-2.36-.7-4.26-2.11-5.69h0Z"/><path d="M258.62,29.45v.32h-.02v3.44c-1.6-2.51-3.92-3.76-6.97-3.76s-5.55,1.06-7.53,3.19c-1.98,2.12-2.96,4.85-2.96,8.19s.99,6.08,2.98,8.23c1.99,2.15,4.48,3.22,7.47,3.22s5.33-1.35,7.01-4.04v3.72h5.42v-22.51h-5.39ZM256.84,45.65c-1.17,1.16-2.54,1.74-4.1,1.74s-2.93-.59-4.1-1.76c-1.17-1.17-1.76-2.78-1.76-4.8s.58-3.62,1.74-4.77,2.53-1.72,4.1-1.72,2.95.58,4.12,1.74c1.17,1.16,1.76,2.76,1.76,4.79s-.59,3.62-1.76,4.79h0Z"/><path d="M52.41,35.5c6.37,4.96,13.82,3.44,19.55-1.75,1.04-.94,2.34-1.71,1.29-2.95-.51-.6-3.84-3.97-4.29-3.97-.5,0-3.1,2.22-3.9,2.69-2.89,1.7-6.14,1.87-8.81-.39-3.91-3.3-2.65-7.38-.51-11.24.72-1.3,2.17-2.21,1.03-3.58-.51-.61-3.2-3.38-3.72-3.66-1.17-.63-3.46,3.02-4.01,3.91-4.69,7.49-3.77,15.36,3.37,20.92Z"/><path d="M56.94,26.47c4.59,6.03,11.91-1.94,6.45-6.19-4.18-3.25-9.69,1.94-6.45,6.19Z"/><path d="M33.98,46.75c-6.37-4.96-13.82-3.44-19.55,1.75-1.04.94-2.34,1.71-1.29,2.95.51.6,3.84,3.97,4.29,3.97.5,0,3.1-2.22,3.9-2.69,2.89-1.7,6.14-1.87,8.81.39,3.91,3.3,2.65,7.38.51,11.24-.72,1.3-2.17,2.21-1.03,3.58.51.61,3.2,3.38,3.72,3.66,1.17.63,3.46-3.02,4.01-3.91,4.69-7.49,3.77-15.36-3.37-20.92Z"/><path d="M29.44,55.79c-4.59-6.03-11.91,1.94-6.45,6.19,4.18,3.25,9.69-1.94,6.45-6.19Z"/><path d="M48.77,50.32c-4.96,6.37-3.44,13.82,1.75,19.55.94,1.04,1.71,2.34,2.95,1.29.6-.51,3.97-3.84,3.97-4.29,0-.5-2.22-3.1-2.69-3.9-1.7-2.89-1.87-6.14.39-8.81,3.3-3.91,7.38-2.65,11.24-.51,1.3.72,2.21,2.17,3.58,1.03.61-.51,3.38-3.2,3.66-3.72.63-1.17-3.02-3.46-3.91-4.01-7.49-4.69-15.36-3.77-20.92,3.37Z"/><path d="M57.81,54.86c-6.03,4.59,1.94,11.91,6.19,6.45,3.25-4.18-1.94-9.69-6.19-6.45Z"/><path d="M37.64,32c4.96-6.37,3.44-13.82-1.75-19.55-.94-1.04-1.71-2.34-2.95-1.29-.6.51-3.97,3.84-3.97,4.29,0,.5,2.22,3.1,2.69,3.9,1.7,2.89,1.87,6.14-.39,8.81-3.3,3.91-7.38,2.65-11.24.51-1.3-.72-2.21-2.17-3.58-1.03-.61.51-3.38,3.2-3.66,3.72-.63,1.17,3.02,3.46,3.91,4.01,7.49,4.69,15.36,3.77,20.92-3.37Z"/><path d="M28.6,27.47c6.03-4.59-1.94-11.91-6.19-6.45-3.25,4.18,1.94,9.69,6.19,6.45Z"/></svg>